<?xml version="1.0" encoding="utf-8"?>
<!-- Generator: Adobe Illustrator 21.1.0, SVG Export Plug-In . SVG Version: 6.00 Build 0)  -->
<svg version="1.1" id="Layer_1" xmlns="http://www.w3.org/2000/svg" xmlns:xlink="http://www.w3.org/1999/xlink" x="0px" y="0px"
	 viewBox="0 0 1984.2 708.7" style="enable-background:new 0 0 1984.2 708.7;" xml:space="preserve">
<style type="text/css">
	.st0{fill:#520360;}
	.st1{fill:#520360;stroke:#520360;stroke-miterlimit:10;}
</style>
<g>
	<path class="st0" d="M1144.6,342.9c1.8-3.4,4.4-5.8,8-7c3.6-1.2,9.2-1.8,16.9-1.8c7.6,0,13.2,1.7,16.6,5c3.4,3.3,5.1,8.6,5.1,15.8
		v4.2c0,4.2-0.1,7.3-0.4,9.4c-0.3,2-1.1,4.4-2.5,7.2c-2.8,5.1-9.5,7.6-20.2,7.6c-10.6,0-17.7-1.7-21.1-5.1
		c-3.4-3.4-5.1-10.1-5.1-19.9C1142,351.5,1142.8,346.3,1144.6,342.9z M1179.9,312.2c-3.3,0.9-7.8,1.3-13.4,1.3
		c-5.6,0-10.1-0.4-13.4-1.3c-3.3-0.9-5.7-2.5-7-4.7c-1.3-2.3-2.1-4.3-2.4-6.1c-0.3-1.8-0.4-4.5-0.4-8.2v-83.5c0-3.7,0.1-6.5,0.4-8.3
		c0.3-1.8,1.1-3.9,2.5-6.2c1.4-2.3,3.8-3.9,7.1-4.9c3.3-1,7.8-1.4,13.4-1.4c5.6,0,10.1,0.5,13.4,1.4c3.3,1,5.7,2.6,7,5
		c1.3,2.4,2.1,4.5,2.4,6.3c0.3,1.8,0.4,4.6,0.4,8.3v83.5c0,3.7-0.1,6.4-0.4,8.2c-0.3,1.8-1.1,3.7-2.5,5.9
		C1185.6,309.8,1183.2,311.3,1179.9,312.2z"/>
</g>
<g>
	<path class="st1" d="M22.5,355.9c-4.6-5.6-6.9-10.7-6.9-15.1c0-4.5,3.8-10.4,11.3-17.8c4.4-4.2,9-6.3,14-6.3
		c4.9,0,11.8,4.4,20.5,13.2c2.5,3,6,5.8,10.5,8.6c4.6,2.7,8.8,4.1,12.6,4.1c16.3,0,24.5-6.7,24.5-20c0-4-2.2-7.4-6.7-10.1
		c-4.5-2.7-10.1-4.7-16.7-5.9c-6.7-1.2-13.9-3.2-21.6-5.9c-7.7-2.7-14.9-5.9-21.6-9.6c-6.7-3.7-12.3-9.5-16.7-17.5
		c-4.5-8-6.7-17.6-6.7-28.9c0-15.5,5.8-28.9,17.3-40.4c11.5-11.5,27.2-17.3,47-17.3c10.5,0,20.2,1.4,28.8,4.1
		c8.7,2.7,14.7,5.5,18,8.3l6.6,5c5.4,5.1,8.2,9.4,8.2,12.9c0,3.5-2.1,8.3-6.3,14.5c-6,8.8-12.1,13.2-18.4,13.2
		c-3.7,0-8.3-1.8-13.7-5.3c-0.5-0.3-1.5-1.2-3-2.6c-1.5-1.4-2.9-2.5-4.1-3.4c-3.7-2.3-8.4-3.4-14.1-3.4c-5.7,0-10.5,1.4-14.2,4.1
		c-3.8,2.7-5.7,6.5-5.7,11.3c0,4.8,2.2,8.7,6.7,11.7c4.5,3,10.1,5,16.7,6.1c6.7,1.1,14,2.7,21.9,4.9c7.9,2.2,15.2,4.9,21.9,8
		c6.7,3.2,12.3,8.7,16.7,16.5c4.5,7.8,6.7,17.4,6.7,28.9c0,11.4-2.3,21.5-6.9,30.2c-4.6,8.7-10.5,15.4-17.9,20.2
		c-14.2,9.3-29.4,14-45.6,14c-8.3,0-16.1-1-23.4-3c-7.4-2-13.3-4.5-17.9-7.5c-9.3-5.6-15.8-11.1-19.5-16.3L22.5,355.9z"/>
	<path class="st1" d="M280.9,203.7l71.1,147c3,6,4.5,10.5,4.5,13.4c0,6.3-5.1,12-15.3,17.1c-6,3-10.7,4.5-14.1,4.5
		c-3.4,0-6.2-0.8-8.4-2.4c-2.2-1.6-3.8-3.2-4.7-5c-1-1.8-2.3-4.4-4.1-7.9L296.2,342h-73l-13.7,28.5c-1.8,3.5-3.1,6.1-4.1,7.6
		c-1,1.6-2.5,3.2-4.7,4.9c-2.2,1.7-5,2.5-8.4,2.5s-8.1-1.5-14.1-4.5c-10.2-4.9-15.3-10.5-15.3-16.9c0-3,1.5-7.5,4.5-13.4l71.1-147.3
		c1.9-4,4.9-7.3,8.8-9.7c4-2.5,8.1-3.7,12.5-3.7C269.3,190,276.4,194.5,280.9,203.7z M259.6,266.9L242.2,303h35L259.6,266.9z"/>
	<path class="st1" d="M489.1,193.7c8.6,6,12.9,11.8,12.9,17.4c0,3.3-2,8-6.1,14L439,310.1v50.3c0,4-0.1,7.1-0.4,9.1
		c-0.3,2-1.1,4.3-2.5,7c-1.4,2.6-3.8,4.5-7.1,5.5c-3.3,1.1-7.8,1.6-13.4,1.6c-5.6,0-10.1-0.5-13.4-1.6c-3.3-1.1-5.7-2.9-7.1-5.7
		c-1.4-2.7-2.2-5.1-2.5-7.1c-0.3-2-0.4-5.1-0.4-9.4v-49.8L335.2,225c-4-6-6.1-10.6-6.1-14c0-5.6,3.9-11,11.6-16.2
		c7.7-5.2,13.3-7.8,16.6-7.8c3.3,0,6,0.7,7.9,2.1c3,1.9,6.1,5.5,9.5,10.8l40.8,65.3l40.8-65.3c3.3-5.3,6.2-8.7,8.7-10.4
		c2.5-1.7,5.3-2.5,8.6-2.5C476.9,187.1,482.1,189.3,489.1,193.7z"/>
	<path class="st1" d="M736.5,193.7c8.6,6,12.9,11.8,12.9,17.4c0,3.3-2,8-6.1,14l-56.9,85.1v50.3c0,4-0.1,7.1-0.4,9.1
		c-0.3,2-1.1,4.3-2.5,7c-1.4,2.6-3.8,4.5-7.1,5.5c-3.3,1.1-7.8,1.6-13.4,1.6c-5.6,0-10.1-0.5-13.4-1.6c-3.3-1.1-5.7-2.9-7.1-5.7
		c-1.4-2.7-2.2-5.1-2.5-7.1c-0.3-2-0.4-5.1-0.4-9.4v-49.8L582.6,225c-4-6-6.1-10.6-6.1-14c0-5.6,3.9-11,11.6-16.2
		c7.7-5.2,13.3-7.8,16.6-7.8c3.3,0,6,0.7,7.9,2.1c3,1.9,6.1,5.5,9.5,10.8l40.8,65.3l40.8-65.3c3.3-5.3,6.2-8.7,8.7-10.4
		c2.5-1.7,5.3-2.5,8.6-2.5C724.3,187.1,729.4,189.3,736.5,193.7z"/>
	<path class="st1" d="M812.1,336.5h81.1c4,0,7.1,0.1,9.1,0.4c2,0.3,4.3,1.1,7,2.5c4.7,2.5,7.1,9.3,7.1,20.6
		c0,12.3-3.3,19.5-9.7,21.6c-3,1.1-7.6,1.6-13.7,1.6H788.6c-12.3,0-19.5-3.3-21.6-10c-1.1-2.8-1.6-7.3-1.6-13.4V213.2
		c0-9,1.7-15.1,5-18.3c3.3-3.2,9.7-4.9,19-4.9h103.8c4,0,7.1,0.1,9.1,0.4c2,0.3,4.3,1.1,7,2.5c4.7,2.5,7.1,9.3,7.1,20.6
		c0,12.3-3.3,19.5-9.7,21.6c-3,1.1-7.6,1.6-13.7,1.6h-80.9v26.6h52.2c4,0,7.1,0.1,9.1,0.4c2,0.3,4.3,1.1,7,2.5
		c4.7,2.5,7.1,9.3,7.1,20.5c0,12.3-3.3,19.5-10,21.6c-3,1.1-7.6,1.6-13.7,1.6h-51.6V336.5z"/>
	<path class="st1" d="M938,355.9c-4.6-5.6-6.9-10.7-6.9-15.1c0-4.5,3.8-10.4,11.3-17.8c4.4-4.2,9-6.3,14-6.3
		c4.9,0,11.8,4.4,20.5,13.2c2.5,3,6,5.8,10.5,8.6c4.6,2.7,8.8,4.1,12.6,4.1c16.3,0,24.5-6.7,24.5-20c0-4-2.2-7.4-6.7-10.1
		c-4.5-2.7-10.1-4.7-16.7-5.9c-6.7-1.2-13.9-3.2-21.6-5.9c-7.7-2.7-14.9-5.9-21.6-9.6c-6.7-3.7-12.3-9.5-16.7-17.5
		c-4.5-8-6.7-17.6-6.7-28.9c0-15.5,5.8-28.9,17.3-40.4c11.5-11.5,27.2-17.3,47-17.3c10.5,0,20.2,1.4,28.8,4.1
		c8.7,2.7,14.7,5.5,18,8.3l6.6,5c5.4,5.1,8.2,9.4,8.2,12.9c0,3.5-2.1,8.3-6.3,14.5c-6,8.8-12.1,13.2-18.4,13.2
		c-3.7,0-8.3-1.8-13.7-5.3c-0.5-0.3-1.5-1.2-3-2.6c-1.5-1.4-2.9-2.5-4.1-3.4c-3.7-2.3-8.4-3.4-14.1-3.4c-5.7,0-10.5,1.4-14.2,4.1
		c-3.8,2.7-5.7,6.5-5.7,11.3c0,4.8,2.2,8.7,6.7,11.7c4.5,3,10.1,5,16.7,6.1c6.7,1.1,14,2.7,21.9,4.9c7.9,2.2,15.2,4.9,21.9,8
		c6.7,3.2,12.2,8.7,16.7,16.5c4.5,7.8,6.7,17.4,6.7,28.9c0,11.4-2.3,21.5-6.8,30.2c-4.6,8.7-10.5,15.4-17.9,20.2
		c-14.2,9.3-29.4,14-45.6,14c-8.3,0-16.1-1-23.4-3c-7.4-2-13.4-4.5-17.9-7.5c-9.3-5.6-15.8-11.1-19.5-16.3L938,355.9z"/>
</g>
<g>
	<path class="st0" d="M1350.9,410.3c-2.5-3.1-3.8-5.9-3.8-8.3c0-2.5,2.1-5.7,6.2-9.8c2.4-2.3,5-3.5,7.7-3.5c2.7,0,6.5,2.4,11.3,7.2
		c1.4,1.6,3.3,3.2,5.8,4.7c2.5,1.5,4.8,2.2,7,2.2c9,0,13.5-3.7,13.5-11c0-2.2-1.2-4.1-3.7-5.6c-2.5-1.5-5.5-2.6-9.2-3.3
		c-3.7-0.7-7.6-1.8-11.9-3.3c-4.3-1.5-8.2-3.3-11.9-5.3c-3.7-2-6.7-5.2-9.2-9.6c-2.5-4.4-3.7-9.7-3.7-15.9c0-8.5,3.2-15.9,9.5-22.2
		c6.3-6.3,14.9-9.5,25.9-9.5c5.8,0,11.1,0.8,15.9,2.2c4.8,1.5,8.1,3,9.9,4.6l3.6,2.8c3,2.8,4.5,5.2,4.5,7.1c0,1.9-1.2,4.6-3.5,8
		c-3.3,4.8-6.7,7.2-10.1,7.2c-2,0-4.5-1-7.5-2.9c-0.3-0.2-0.8-0.7-1.7-1.4c-0.8-0.8-1.6-1.4-2.2-1.9c-2-1.3-4.6-1.9-7.8-1.9
		c-3.1,0-5.7,0.8-7.8,2.2c-2.1,1.5-3.1,3.6-3.1,6.2c0,2.7,1.2,4.8,3.7,6.4c2.5,1.6,5.5,2.8,9.2,3.3c3.7,0.6,7.7,1.5,12,2.7
		c4.3,1.2,8.4,2.7,12,4.4c3.7,1.7,6.7,4.8,9.2,9.1c2.5,4.3,3.7,9.6,3.7,15.9c0,6.3-1.3,11.8-3.8,16.6c-2.5,4.8-5.8,8.5-9.9,11.1
		c-7.8,5.1-16.2,7.7-25.1,7.7c-4.5,0-8.8-0.6-12.9-1.7c-4.1-1.1-7.3-2.5-9.9-4.1c-5.1-3.1-8.7-6.1-10.7-9L1350.9,410.3z"/>
	<path class="st0" d="M1503.9,397.4l2.6-1.9c3.3-1.9,5.6-2.9,7-2.9c3,0,6.2,2.7,9.7,8.1c2.1,3.4,3.2,6.1,3.2,8.1c0,2-0.7,3.7-2,5.1
		c-1.3,1.4-2.8,2.6-4.6,3.6c-1.7,1.1-3.4,2.1-5,3c-1.6,1-4.9,2.2-9.8,3.8c-4.9,1.5-9.7,2.3-14.3,2.3c-4.6,0-9.2-0.6-13.9-1.8
		c-4.7-1.2-9.5-3.2-14.5-6.1c-5-2.8-9.4-6.3-13.4-10.4c-4-4.1-7.2-9.4-9.8-15.8c-2.6-6.4-3.8-13.4-3.8-20.9s1.3-14.4,3.8-20.5
		c2.5-6.1,5.7-11.2,9.6-15.2c3.9-4,8.4-7.4,13.4-10.1c9.5-5.2,19-7.8,28.5-7.8c4.5,0,9.2,0.7,13.8,2.1c4.7,1.4,8.2,2.8,10.6,4.3
		l3.5,2c1.7,1.1,3.1,1.9,4.1,2.6c2.5,2,3.8,4.3,3.8,6.9c0,2.6-1,5.2-3,8c-3.8,5.2-7.2,7.8-10.1,7.8c-1.7,0-4.2-1.1-7.4-3.2
		c-4.1-3.3-9.5-4.9-16.2-4.9c-6.3,0-12.5,2.2-18.5,6.5c-2.9,2.1-5.3,5.1-7.2,9c-1.9,3.9-2.9,8.2-2.9,13.1c0,4.9,1,9.3,2.9,13.1
		c1.9,3.9,4.4,6.9,7.4,9.1c5.9,4.3,12,6.4,18.4,6.4c3,0,5.8-0.4,8.5-1.2C1500.8,399,1502.8,398.2,1503.9,397.4z"/>
	<path class="st0" d="M1605.3,322.9c0.8-1.4,2.1-2.5,3.9-3c1.8-0.6,4.2-0.9,7-0.9c2.8,0,5,0.2,6.7,0.7c1.6,0.5,2.9,1.1,3.8,1.7
		c0.9,0.7,1.5,1.6,2,2.9c0.5,1.6,0.7,4.2,0.7,7.5v80.4c0,2.2-0.1,3.9-0.2,5c-0.1,1.1-0.6,2.4-1.4,3.8c-1.4,2.6-5.1,3.9-11.3,3.9
		c-6.8,0-10.7-1.8-11.9-5.4c-0.6-1.6-0.9-4.2-0.9-7.5v-29.4h-38.4v29.6c0,2.2-0.1,3.9-0.2,5c-0.1,1.1-0.6,2.4-1.4,3.8
		c-1.4,2.6-5.1,3.9-11.3,3.9c-6.8,0-10.7-1.8-11.9-5.4c-0.6-1.6-0.9-4.2-0.9-7.5v-80.4c0-2.2,0.1-3.9,0.2-5c0.1-1.1,0.6-2.4,1.4-3.8
		c1.4-2.6,5.1-3.9,11.3-3.9c6.8,0,10.8,1.8,12,5.4c0.5,1.6,0.7,4.2,0.7,7.5v29.6h38.4v-29.7c0-2.2,0.1-3.9,0.2-5
		C1604.1,325.7,1604.6,324.4,1605.3,322.9z"/>
	<path class="st0" d="M1694.6,317.7c14.3,0,26.7,5.2,37.2,15.5c10.5,10.3,15.8,23.2,15.8,38.5c0,15.3-5,28.4-15.1,39.1
		c-10,10.8-22.4,16.2-37.1,16.2c-14.7,0-27.2-5.3-37.5-15.9c-10.3-10.6-15.4-23.3-15.4-38c0-8,1.4-15.5,4.3-22.5
		c2.9-7,6.8-12.9,11.6-17.6c4.8-4.7,10.4-8.5,16.7-11.2C1681.5,319.1,1687.9,317.7,1694.6,317.7z M1668.2,372.3
		c0,8.6,2.8,15.6,8.3,20.9c5.6,5.4,11.8,8,18.6,8c6.9,0,13-2.6,18.5-7.8c5.5-5.2,8.3-12.2,8.3-21c0-8.8-2.8-15.8-8.3-21.2
		c-5.6-5.3-11.8-8-18.6-8c-6.9,0-13,2.7-18.5,8C1671,356.8,1668.2,363.8,1668.2,372.3z"/>
	<path class="st0" d="M1810.7,317.7c14.3,0,26.7,5.2,37.2,15.5c10.5,10.3,15.8,23.2,15.8,38.5c0,15.3-5,28.4-15.1,39.1
		c-10,10.8-22.4,16.2-37.1,16.2c-14.7,0-27.2-5.3-37.5-15.9c-10.3-10.6-15.4-23.3-15.4-38c0-8,1.4-15.5,4.3-22.5
		c2.9-7,6.8-12.9,11.6-17.6c4.8-4.7,10.4-8.5,16.7-11.2C1797.5,319.1,1804,317.7,1810.7,317.7z M1784.3,372.3
		c0,8.6,2.8,15.6,8.3,20.9c5.6,5.4,11.8,8,18.6,8c6.9,0,13-2.6,18.5-7.8c5.5-5.2,8.3-12.2,8.3-21c0-8.8-2.8-15.8-8.3-21.2
		c-5.6-5.3-11.8-8-18.6-8c-6.9,0-13,2.7-18.5,8C1787.1,356.8,1784.3,363.8,1784.3,372.3z"/>
	<path class="st0" d="M1902.5,403.8h39.4c3.2,0,5.5,0.4,7,1.1c1.4,0.7,2.4,1.9,2.9,3.4c0.5,1.5,0.7,3.6,0.7,6.2
		c0,2.6-0.2,4.6-0.7,6.2c-0.5,1.5-1.3,2.6-2.5,3.2c-1.8,1-4.3,1.4-7.5,1.4h-52.2c-6.8,0-10.7-1.8-11.9-5.5c-0.6-1.5-0.9-4-0.9-7.4
		v-80.6c0-2.2,0.1-3.9,0.2-5c0.1-1.1,0.6-2.4,1.4-3.8c1.4-2.6,5.1-3.9,11.3-3.9c6.8,0,10.8,1.8,12,5.4c0.5,1.6,0.7,4.2,0.7,7.5
		V403.8z"/>
</g>
<g>
	<path class="st0" d="M1190.7,451.1c0-3.7-0.1-6.5-0.4-8.3c-0.3-1.8-1.1-4-2.5-6.3c-1.4-2.4-3.9-4-7.5-5c-3.6-1-8.4-1.4-14.4-1.4
		c-6,0-10.9,0.5-14.4,1.4c-3.6,1-6.1,2.6-7.6,4.9c-1.5,2.3-2.4,4.3-2.7,6.2c-0.3,1.8-0.4,4.6-0.4,8.3v4.1
		c-0.2,2.3-1.3,11.2-5.9,19.8c-6.7,12.5-17.8,18.3-34.9,18.3c-6.9,0-13.5,2.8-18.2,7.9c-4.7,5-7.2,11.8-6.8,18.7l3.6,58.7
		l-58.5-74.1c-4.7-6-12-9.5-19.6-9.5H610.5c-0.9,0-1.8,0-2.6,0.1c-0.2,0-16.6,1.1-27.6-8.3c-7.3-6.2-11.4-16.7-12.2-31.1v-3.8
		c0-3.7-0.1-6.5-0.4-8.3c-0.3-1.8-1.1-4-2.5-6.3c-1.4-2.4-3.9-4-7.5-5c-3.6-1-8.4-1.5-14.4-1.5c-6,0-10.9,0.5-14.4,1.5
		c-3.6,1-6.1,2.6-7.6,4.9c-1.5,2.3-2.4,4.3-2.7,6.2c-0.3,1.8-0.4,4.6-0.4,8.3v5.2c0,0,0,0.1,0.1,0.1c0,0,0,0.1,0,0.1
		c1.4,29.2,11.4,52,29.7,67.7c24.9,21.4,55.9,20.8,63.8,20.3h376.7l100.5,127.2c4.8,6.1,12.1,9.5,19.6,9.5c3,0,6-0.5,8.9-1.6
		c10.2-3.9,16.7-14,16.1-24.9l-7-115.1c23-6,41.2-20.2,52.6-41.5c10.9-20.4,11.8-40.4,11.8-42.7c0-0.8,0-1.6-0.1-2.4
		c0,0,0.1-0.1,0.1-0.1V451.1z"/>
	<path class="st0" d="M695,74.2c2.3,1.5,4.3,2.4,6.2,2.7c1.8,0.3,4.6,0.4,8.3,0.4h5.2c0,0,0.1,0,0.1,0c0.1,0,0.2,0,0.3,0l378,0.1
		c0.7,0,1,0,1.7-0.1c1.6-0.1,21.7-0.6,34.2,11c7.1,6.6,10.9,16.4,11.6,29.8v6c0,3.7,0.1,6.5,0.4,8.3c0.3,1.8,1.1,4,2.5,6.3
		c1.4,2.4,3.9,4,7.5,5c3.6,1,8.4,1.4,14.4,1.4c6,0,10.9-0.5,14.4-1.4c3.6-1,6.1-2.6,7.6-4.9c1.5-2.3,2.4-4.3,2.7-6.2
		c0.3-1.8,0.4-4.6,0.4-8.3v-5.1c0-0.1,0-0.1,0-0.2c-0.8-35.8-15.8-56.8-28.2-68.1c-26.9-24.5-62.5-24.2-70.1-23.8l-366.3-0.1
		c0,0,0,0,0,0h-16.3c-3.7,0-6.5,0.1-8.3,0.4c-1.8,0.3-4,1.1-6.3,2.5c-2.4,1.4-4,3.9-5,7.5c-1,3.6-1.4,8.4-1.4,14.4
		c0,6,0.5,10.9,1.4,14.4C691.1,70.2,692.7,72.7,695,74.2z"/>
</g>
<g>
	<path class="st0" d="M1374.9,234.9h44.6c2.2,0,3.9,0.1,5,0.2c1.1,0.1,2.4,0.6,3.8,1.4c2.6,1.4,3.9,5.1,3.9,11.3
		c0,6.8-1.8,10.7-5.4,11.9c-1.6,0.6-4.2,0.9-7.5,0.9H1362c-6.8,0-10.7-1.8-11.9-5.5c-0.6-1.5-0.9-4-0.9-7.4v-80.6
		c0-4.9,0.9-8.3,2.8-10.1c1.8-1.8,5.3-2.7,10.4-2.7h57.1c2.2,0,3.9,0.1,5,0.2c1.1,0.1,2.4,0.6,3.8,1.4c2.6,1.4,3.9,5.1,3.9,11.3
		c0,6.8-1.8,10.7-5.4,11.9c-1.6,0.6-4.2,0.9-7.5,0.9h-44.5v14.6h28.7c2.2,0,3.9,0.1,5,0.2c1.1,0.1,2.4,0.6,3.8,1.4
		c2.6,1.4,3.9,5.1,3.9,11.3c0,6.8-1.8,10.7-5.5,11.9c-1.6,0.6-4.2,0.9-7.5,0.9h-28.4V234.9z"/>
	<path class="st0" d="M1514.1,158.8c0.9-1.7,2.3-2.8,4.1-3.4c1.8-0.6,4.1-0.9,6.9-0.9c2.8,0,5,0.2,6.7,0.7c1.7,0.5,2.9,1.1,3.8,1.7
		c0.8,0.7,1.4,1.7,1.8,3c0.6,1.5,0.9,4,0.9,7.4v80.4c0,2.3-0.1,4-0.2,5.1c-0.1,1.1-0.6,2.3-1.4,3.8c-1.4,2.6-5.1,3.9-11.3,3.9
		c-3.8,0-6.4-0.3-7.8-0.9c-1.5-0.6-2.7-1.5-3.6-2.8c-21.7-29-36-47.9-42.9-56.8v47.7c0,2.3-0.1,4-0.2,5.1c-0.1,1.1-0.6,2.3-1.4,3.8
		c-1.4,2.6-5.1,3.9-11.3,3.9c-6,0-9.7-1.3-11-3.9c-0.8-1.4-1.2-2.8-1.4-3.9c-0.1-1.2-0.2-2.8-0.2-5.1v-80.9c0-3.7,0.5-6.4,1.4-8
		c0.9-1.7,2.3-2.8,4.1-3.4c1.8-0.6,4.2-0.9,7.1-0.9c2.9,0,5.2,0.3,6.9,0.8c1.7,0.5,2.9,1.1,3.5,1.8c0.4,0.3,1.5,1.5,3.3,3.8
		c20.4,27.7,34,46,40.9,54.9v-49C1512.7,163.1,1513.2,160.5,1514.1,158.8z"/>
	<path class="st0" d="M1609,196.5h25.5c5.2,0.2,8.4,1.5,9.6,4.1c1,1.8,1.4,4.5,1.4,8.1v31.9c0,3.1-1.4,6-4.1,8.8
		c-8.1,8.4-20.3,12.6-36.5,12.6c-14.4,0-26.9-5.4-37.5-16.3c-10.6-10.9-15.9-24-15.9-39.3c0-15.4,5.4-28.2,16.2-38.5
		c10.8-10.3,23.6-15.4,38.3-15.4c11.4,0,22.2,3.8,32.3,11.3c2.6,1.9,3.9,4.1,3.9,6.4c0,2.4-1.1,5.1-3.3,8.2
		c-3.8,5.1-7.2,7.7-10.3,7.7c-1.8,0-4.8-1.3-8.8-4c-4.1-2.7-8.9-4-14.5-4c-7.3,0-13.9,2.6-19.6,7.8c-5.7,5.2-8.5,11.9-8.5,20.3
		c0,8.4,2.9,15.5,8.7,21.3c5.8,5.8,12.4,8.8,19.7,8.8c5.3,0,10.1-0.9,14.3-2.6v-15.8h-11.4c-3,0-5.1-0.4-6.4-1.2
		c-1.3-0.8-2.1-1.9-2.5-3.4c-0.4-1.5-0.6-3.5-0.6-6.1c0-2.6,0.2-4.6,0.7-6.2c0.4-1.5,1.2-2.6,2.4-3.2
		C1603.7,197,1606.1,196.5,1609,196.5z"/>
	<path class="st0" d="M1686.5,239.1h39.4c3.2,0,5.5,0.4,7,1.1c1.4,0.7,2.4,1.9,2.9,3.4c0.5,1.5,0.7,3.6,0.7,6.2
		c0,2.6-0.2,4.6-0.7,6.2c-0.5,1.5-1.3,2.6-2.5,3.2c-1.8,1-4.3,1.4-7.5,1.4h-52.2c-6.8,0-10.7-1.8-11.9-5.5c-0.6-1.5-0.9-4-0.9-7.4
		v-80.6c0-2.2,0.1-3.9,0.2-5c0.1-1.1,0.6-2.4,1.4-3.8c1.4-2.6,5.1-3.9,11.3-3.9c6.8,0,10.8,1.8,12,5.4c0.5,1.6,0.7,4.2,0.7,7.5
		V239.1z"/>
	<path class="st0" d="M1749.7,167.1c0-2.2,0.1-3.9,0.2-5c0.1-1.1,0.6-2.4,1.4-3.8c1.4-2.6,5.1-3.9,11.3-3.9c6.8,0,10.8,1.8,12,5.4
		c0.5,1.6,0.7,4.2,0.7,7.5v80.6c0,2.3-0.1,4-0.2,5.1c-0.1,1.1-0.6,2.3-1.4,3.8c-1.4,2.6-5.1,3.9-11.3,3.9c-6.8,0-10.7-1.8-11.9-5.5
		c-0.6-1.5-0.9-4-0.9-7.4V167.1z"/>
	<path class="st0" d="M1792.3,245.6c-2.5-3.1-3.8-5.9-3.8-8.3c0-2.5,2.1-5.7,6.2-9.8c2.4-2.3,5-3.5,7.7-3.5s6.5,2.4,11.3,7.2
		c1.4,1.6,3.3,3.2,5.8,4.7c2.5,1.5,4.8,2.2,7,2.2c9,0,13.5-3.7,13.5-11c0-2.2-1.2-4.1-3.7-5.6c-2.5-1.5-5.5-2.6-9.2-3.3
		c-3.7-0.7-7.6-1.8-11.9-3.3c-4.3-1.5-8.2-3.3-11.9-5.3c-3.7-2-6.7-5.2-9.2-9.6c-2.5-4.4-3.7-9.7-3.7-15.9c0-8.5,3.2-15.9,9.5-22.2
		c6.3-6.3,14.9-9.5,25.9-9.5c5.8,0,11.1,0.8,15.9,2.2c4.8,1.5,8.1,3,9.9,4.6l3.6,2.8c3,2.8,4.5,5.2,4.5,7.1c0,1.9-1.2,4.6-3.5,8
		c-3.3,4.8-6.7,7.2-10.1,7.2c-2,0-4.5-1-7.5-2.9c-0.3-0.2-0.8-0.7-1.7-1.4c-0.8-0.8-1.6-1.4-2.2-1.9c-2-1.3-4.6-1.9-7.8-1.9
		c-3.1,0-5.7,0.7-7.8,2.2c-2.1,1.5-3.1,3.6-3.1,6.2c0,2.7,1.2,4.8,3.7,6.4c2.5,1.6,5.5,2.8,9.2,3.3c3.7,0.6,7.7,1.5,12,2.7
		c4.3,1.2,8.4,2.7,12,4.4c3.7,1.7,6.7,4.8,9.2,9.1c2.5,4.3,3.7,9.6,3.7,15.9c0,6.3-1.3,11.8-3.8,16.6c-2.5,4.8-5.8,8.5-9.9,11.1
		c-7.8,5.1-16.2,7.7-25.1,7.7c-4.5,0-8.8-0.6-12.9-1.7c-4.1-1.1-7.3-2.5-9.9-4.1c-5.1-3.1-8.7-6.1-10.7-9L1792.3,245.6z"/>
	<path class="st0" d="M1944.6,158.3c0.8-1.4,2.1-2.5,3.9-3c1.8-0.6,4.2-0.9,7-0.9s5,0.2,6.7,0.7c1.6,0.5,2.9,1.1,3.8,1.7
		c0.9,0.7,1.5,1.6,2,2.9c0.5,1.6,0.7,4.2,0.7,7.5v80.4c0,2.2-0.1,3.9-0.2,5c-0.1,1.1-0.6,2.4-1.4,3.8c-1.4,2.6-5.1,3.9-11.3,3.9
		c-6.8,0-10.7-1.8-11.9-5.4c-0.6-1.6-0.9-4.2-0.9-7.5v-29.4h-38.4v29.6c0,2.2-0.1,3.9-0.2,5c-0.1,1.1-0.6,2.4-1.4,3.8
		c-1.4,2.6-5.1,3.9-11.3,3.9c-6.8,0-10.7-1.8-11.9-5.4c-0.6-1.6-0.9-4.2-0.9-7.5v-80.4c0-2.2,0.1-3.9,0.2-5c0.1-1.1,0.6-2.4,1.4-3.8
		c1.4-2.6,5.1-3.9,11.3-3.9c6.8,0,10.8,1.8,12,5.4c0.5,1.6,0.7,4.2,0.7,7.5v29.6h38.4v-29.7c0-2.2,0.1-3.9,0.2-5
		C1943.3,161,1943.8,159.7,1944.6,158.3z"/>
</g>
</svg>
